<svg xmlns="http://www.w3.org/2000/svg" width="1112" height="310" viewBox="0 0 1112 310" role="img" aria-labelledby="title desc">
  <title id="title">上海办事指南横幅</title>
  <desc id="desc">上海城市背景，一网通办搜索框与搜一下按钮。</desc>
  <defs>
    <linearGradient id="sky" x1="0" x2="1" y1="0" y2="1">
      <stop offset="0" stop-color="#d8d2e7"/>
      <stop offset="0.45" stop-color="#f0e6df"/>
      <stop offset="1" stop-color="#f5a653"/>
    </linearGradient>
    <linearGradient id="glass" x1="0" x2="1" y1="0" y2="0">
      <stop offset="0" stop-color="#ffffff" stop-opacity="0.92"/>
      <stop offset="0.7" stop-color="#ffffff" stop-opacity="0.85"/>
      <stop offset="1" stop-color="#ffffff" stop-opacity="0.74"/>
    </linearGradient>
    <filter id="soft" x="-10%" y="-20%" width="120%" height="140%">
      <feGaussianBlur stdDeviation="1.2"/>
    </filter>
  </defs>
  <rect width="1112" height="310" fill="url(#sky)"/>
  <g opacity="0.26" stroke="#ffffff" stroke-width="2">
    <path d="M93 0v310M355 0v310M747 0v310M1004 0v310"/>
    <path d="M0 274h1112"/>
  </g>
  <g opacity="0.45">
    <circle cx="742" cy="58" r="3" fill="#fff"/>
    <circle cx="898" cy="132" r="4" fill="#fff"/>
    <circle cx="1043" cy="64" r="3" fill="#fff"/>
  </g>
  <g opacity="0.72">
    <rect x="0" y="145" width="54" height="165" fill="#a45a53"/>
    <rect x="8" y="34" width="44" height="111" fill="#a75f58"/>
    <rect x="60" y="128" width="72" height="182" fill="#c66c53"/>
    <rect x="76" y="72" width="40" height="56" fill="#b95550"/>
    <rect x="149" y="159" width="87" height="151" fill="#d47a4c"/>
    <rect x="198" y="78" width="73" height="232" fill="#b55f54"/>
    <rect x="278" y="128" width="68" height="182" fill="#bd6d52"/>
    <rect x="360" y="70" width="63" height="240" fill="#c76548"/>
    <rect x="432" y="163" width="96" height="147" fill="#d28a58"/>
    <rect x="584" y="202" width="60" height="108" fill="#d7834f"/>
    <rect x="652" y="230" width="90" height="80" fill="#d89554"/>
    <rect x="742" y="205" width="88" height="105" fill="#d17d49"/>
    <rect x="840" y="185" width="72" height="125" fill="#ca704a"/>
  </g>
  <g opacity="0.34" stroke="#fff2dd" stroke-width="3">
    <path d="M0 306c168-51 270-51 392 0"/>
    <path d="M488 309c123-32 233-31 352 0"/>
  </g>
  <rect x="5" y="144" width="1100" height="108" rx="8" fill="url(#glass)"/>
  <rect x="911" y="144" width="194" height="108" rx="9" fill="#dfbf88"/>
  <text x="556" y="53" fill="#ffffff" opacity="0.58" font-family="Arial, 'Noto Sans CJK SC', sans-serif" font-size="35" text-anchor="middle" font-weight="600">海纳百川 · 追求卓越 · 开明睿智 · 大气谦和</text>
  <text x="79" y="209" fill="#8e5d4c" font-family="Arial, 'Noto Sans CJK SC', sans-serif" font-size="32" font-weight="600">本站以“一网通办”，践行“人民城市”</text>
  <g transform="translate(842 173)" opacity="0.45">
    <rect x="18" y="3" width="18" height="43" rx="9" fill="none" stroke="#8d8d8d" stroke-width="5"/>
    <path d="M6 32c0 21 42 21 42 0M27 54v18M16 72h22" fill="none" stroke="#8d8d8d" stroke-width="5" stroke-linecap="round"/>
  </g>
  <text x="1008" y="211" fill="#ffffff" font-family="Arial, 'Noto Sans CJK SC', sans-serif" font-size="34" text-anchor="middle" font-weight="700">搜一下</text>
  <rect width="1112" height="310" fill="#ffffff" opacity="0.08" filter="url(#soft)"/>
</svg>
